<svg data-name="Layer 1" xmlns="http://www.w3.org/2000/svg" viewBox="0 0 979.45 919.37"><g fill="#fd308f"><path opacity=".16" style="isolation:isolate" d="M80.62 217.2 5.27 260.7l376.15 217.08 75.98-43.06L80.62 217.2zM456.78 608.74l-75.36 43.5.62 261.05 75.36-43.51-.62-261.04zM456.78 437.22l-75.36 43.51.62 84.51 75.36-43.5-.62-84.52z"></path></g><g fill="#00d9ee"><path opacity=".1" style="isolation:isolate" d="M898.79 217.16 522.02 434.69l75.22 43.48L974.1 260.6l-75.31-43.44zM523.43 435.82l-1.41 433.92 75.35 43.51 1.37-434-75.31-43.43z"></path></g><path fill="#00ffcf" d="m113.92 88.03-1.52 86.13 376.76 215.79 376.77-215.79-1.94-85.98L489.16 305.9 113.92 88.03z" data-name="Path" opacity=".13"></path><path fill="#00ffcf" d="M638.24 46.39 413.63 174.13 489 217.64l148.76-84.26.48-86.99z" data-name="Path 2" opacity=".11"></path><g fill="#00d9ee"><path opacity=".07" style="isolation:isolate" d="m823.1 437.02-150.37 84.73v88.97l226.44-131.18-76.07-42.52z"></path><path opacity=".05" style="isolation:isolate" d="m898.2 474.83-75.1-37.81 75.1-43.99v81.8z"></path><path opacity=".07" style="isolation:isolate" d="M898.22 565.2 674.16 695.58l-2.05 87.2 302.18-175.06-76.07-42.52z"></path></g><g fill="#fd308f"><path opacity=".1" style="isolation:isolate" d="m154.32 434.7-75.35 43.51-.62-84.52 75.97 41.01z"></path><path opacity=".1" style="isolation:isolate" d="m149.34 437.22-69.34 41 301.42 174.02 75.36-43.5-307.44-171.52zM78.61 567.91l-69.33 41 297.41 173.92v-87.04L78.61 567.91z"></path></g><g fill="#fd308f"><path d="M382.05 919.36 0 698.78v-93.1l70.08-40.49L0 524.68v-267l80.63-46.58 382.1 220.58v93.1l-70.13 40.5 70.13 40.48v267.06ZM10.55 692.68l371.5 214.5 70.13-40.5V611.79l-80.64-46.55 80.64-46.56v-80.92L80.63 223.28l-70.08 40.49v254.91l80.62 46.55-80.62 46.56Z"></path><path d="M381.86 484.29 2.36 265.19l5.27-9.13 374.23 216.06 72.73-41.99 5.28 9.12-78.01 45.04zM376.14 652.15h10.55V913.7h-10.55zM311.96 791.95 2.56 613.32l5.27-9.13 293.59 169.5v-74.86L77.94 569.8l5.27-9.13 228.75 132.07v99.21zM77.656 473.691l71.937-42.747 5.39 9.07-71.938 42.747z"></path><path d="M381.42 658.33 74.73 481.26v-96.47l301.41 171.37v-78.38h10.55v96.52L85.28 402.92v72.26l296.14 170.97 72.72-41.98 5.26 9.13-77.98 45.03z"></path></g><g><path fill="none" d="M898.22 565.2 672.11 695.75v87.03l302.18-175.06-76.07-42.52z"></path><path d="m597.36 919.34-80.63-46.55V431.68l382-220.58 80.62 46.55v267.11l-2.62 1.52-298.72 172.5v74.83l301.4-174v99.17l-2.62 1.52Zm-70.12-52.66 70.12 40.5 371.5-214.5v-74.82l-301.37 174v-99.18l2.63-1.53L968.9 518.68v-255l-70.12-40.49L527.3 437.73Z" fill="#00d9ee"></path><path d="M667.49 618.17v-99.49l2.63-1.52 234.61-135.42v98.16Zm10.55-93.39v75.06l216.1-126V400Z" fill="#00d9ee"></path><path fill="#00d9ee" d="m819.852 441.366 4.914-9.336 76.412 40.22-4.914 9.335zM597.24 484.26l-78.01-45.03 5.27-9.14 72.74 41.99 374.22-216.06 5.27 9.14-379.49 219.1z"></path><path fill="#00d9ee" d="M591.47 477.62h10.55v435.93h-10.55zM896.402 569.973l4.716-9.438 78.344 39.146-4.716 9.438z"></path></g><g fill="#00ffcf"><path d="m565.06 12.17 64.9 37.51v95.6l15.67-8.72 145.1-80.75 64.69 37.35v74.88L489.16 379.5 122.95 168.06V93.2l64.89-37.47 145.61 84 5.27 3 5.28-3L565.06 12.17m0-12.17L338.73 130.68 187.84 43.55l-75.42 43.56v87l376.74 217.57 376.77-217.53V87.09l-75.14-43.41-150.3 83.64V43.55Z"></path><path d="m488.95 223.71-85.86-49.58L632.25 41.82l5.27 9.13-213.34 123.18 64.87 37.45 141.11-78.45 5.13 9.21-146.34 81.37zM494.44 388.36h-10.55v-80.64L114.88 94.67l5.27-9.14 374.29 216.1v86.73z"></path><path d="m485.517 301.156 373.34-214.594 5.273 9.173-373.34 214.594z"></path></g></svg>